<svg xmlns="http://www.w3.org/2000/svg" viewBox="0 0 391.02 286.81"><defs><style>.cls-1{fill:#ec008c;}.cls-2{fill:#962f34;}.cls-3{fill:#8dc63f;}.cls-4{fill:#fff;stroke:#fff;stroke-miterlimit:10;stroke-width:7px;}</style></defs><title>logo</title><g id="Capa_2" data-name="Capa 2"><g id="Layer_1" data-name="Layer 1"><path class="cls-1" d="M336.54,225.74h5.86A49,49,0,0,1,350,199.46a49.61,49.61,0,0,1,19.74-17.87l10.5-5.25-10.5-5.25a61.07,61.07,0,1,0-27.26,115.71h.06l-.06-5.86-.76,5.8a6,6,0,0,0,.79.05h0l-.06-5.86-.76,5.8.38.05h.38a60.82,60.82,0,0,0,27.26-6.43l10.5-5.25-10.5-5.25A49.63,49.63,0,0,1,350,252a49,49,0,0,1-7.58-26.28H330.67a61,61,0,0,0,33.81,54.64l2.62-5.25-2.62-5.25a49.08,49.08,0,0,1-22,5.18v5.87l.76-5.82a5.73,5.73,0,0,0-.69,0h-.14l.06,5.83v-5.83h-.06l.06,5.83v-5.83a49.33,49.33,0,1,1,22-93.48l2.62-5.25-2.62-5.25a61.06,61.06,0,0,0-33.81,54.64h5.87Z"/><path class="cls-2" d="M287.11,199.91a61.22,61.22,0,0,0,0,51.65l.89-.25c.77-.23,1.41-.47,1.93-.69l.71-.3.31-.14.38-.19h0a8.23,8.23,0,0,0,2.39-1.91,8.69,8.69,0,0,0,1.38-2.15,10.56,10.56,0,0,0,.73-2.24,11.68,11.68,0,0,0,.19-1.27,49.62,49.62,0,0,1,0-33.33,11.09,11.09,0,0,0-.49-2.4,9.54,9.54,0,0,0-.84-1.9,8.72,8.72,0,0,0-1-1.37,8.31,8.31,0,0,0-2.38-1.91h0l-.38-.19c-.38-.18-.78-.36-1.32-.57a23.56,23.56,0,0,0-2.52-.82"/><path class="cls-3" d="M319.67,220.93v0Zm0,9.51v0"/><path class="cls-2" d="M334.69,220.93v0Zm0,9.51v0Z"/><path class="cls-2" d="M331.3,165.69a60.93,60.93,0,0,0-30.64,15.52,21,21,0,0,0,.94,5.34c.24.77.47,1.41.69,1.93.11.27.21.5.3.71l.15.31.2.38h0a8.28,8.28,0,0,0,1.91,2.38c.29.25.56.45.8.62q.93-1,1.93-2a49.39,49.39,0,0,1,45.88-13.22A14.19,14.19,0,0,0,353,176a12.62,12.62,0,0,0-2.26-4.17,14.89,14.89,0,0,0-5.13-4,15.66,15.66,0,0,0-6.8-1.55h0a15.93,15.93,0,0,0-4.45.64,11.86,11.86,0,0,0-2-.87c-.36-.12-.73-.22-1.1-.3m-25.91,17.8h0m48.14-5.38A61.25,61.25,0,0,0,335.47,202h4.29c-.07-2.54-.14-5.35-.14-7.84l.52.15a10.7,10.7,0,0,0,2.68.34,11.26,11.26,0,0,0,3.43-.53,9.56,9.56,0,0,0,1.9-.84,8.74,8.74,0,0,0,1.36-1,8.25,8.25,0,0,0,1.91-2.38h0l.19-.38c.18-.38.36-.79.57-1.32a24.15,24.15,0,0,0,1-3.12,19.83,19.83,0,0,0,.56-4.54,16.41,16.41,0,0,0-.18-2.42M332,218.23h0"/><polygon class="cls-3" points="322.48 218.23 322.37 218.23 322.42 218.23 322.48 218.23"/><polygon class="cls-2" points="331.94 233.25 331.88 233.25 332 233.25 331.94 233.25"/><path class="cls-2" d="M339.76,249.5h-4.29a61.23,61.23,0,0,0,18.06,23.87,16.42,16.42,0,0,0,.18-2.42,20.64,20.64,0,0,0-1-6c-.23-.77-.47-1.41-.69-1.93-.11-.26-.21-.49-.3-.7l-.15-.31c-.05-.11-.1-.21-.19-.38a8.23,8.23,0,0,0-1.91-2.38,8.79,8.79,0,0,0-2.16-1.38,10.43,10.43,0,0,0-2.24-.73,11.54,11.54,0,0,0-2.3-.24,10.71,10.71,0,0,0-2.35.26c-.27.06-.55.14-.85.23,0-2.49.06-5.31.14-7.85m-34.11,9.08a9.1,9.1,0,0,0-.81.62,8.3,8.3,0,0,0-1.91,2.39h0l-.2.39c-.18.38-.36.78-.57,1.32a23.91,23.91,0,0,0-1,3.11,20.4,20.4,0,0,0-.54,3.86,61,61,0,0,0,30.64,15.52l.71-.18a11.72,11.72,0,0,0,2.38-1,15.9,15.9,0,0,0,4.45.64h0a15.65,15.65,0,0,0,8.71-2.64,14.59,14.59,0,0,0,3.22-2.93,12.62,12.62,0,0,0,2.26-4.17h0a14.19,14.19,0,0,0,.42-1.68,49.25,49.25,0,0,1-11,1.24h0a49.15,49.15,0,0,1-34.88-14.45c-.66-.66-1.3-1.34-1.93-2m-.26,9.41h0"/><path class="cls-2" d="M348.5,202h-13a60.79,60.79,0,0,0-4.34,16.26h3.56v7.51h7.72A49,49,0,0,1,348.5,202m-6.09,23.76h-7.72v7.51h-3.56a60.7,60.7,0,0,0,4.34,16.25h13a49.08,49.08,0,0,1-3.57-8.13h-2.12v0h2.12a49.2,49.2,0,0,1-2.53-15.63"/><path class="cls-3" d="M286.51,199.76a19.92,19.92,0,0,0-4.54-.55,15.36,15.36,0,0,0-4.58.67,12.63,12.63,0,0,0-4.16,2.26,14.9,14.9,0,0,0-4,5.13,15.66,15.66,0,0,0-1.55,6.79,15.91,15.91,0,0,0,.64,4.47,11.47,11.47,0,0,0-.86,2,11.91,11.91,0,0,0-.59,3.73v3a11.76,11.76,0,0,0,1.46,5.71,15.9,15.9,0,0,0-.64,4.46,15.62,15.62,0,0,0,2.64,8.7,14.52,14.52,0,0,0,2.93,3.22,12.6,12.6,0,0,0,4.17,2.26,15.26,15.26,0,0,0,4.57.67,19.91,19.91,0,0,0,5.14-.7,61.19,61.19,0,0,1,0-51.65Z"/><path class="cls-3" d="M387,220.91a11.7,11.7,0,0,0-1-2.37,15.86,15.86,0,0,0,.65-4.46,15.64,15.64,0,0,0-2.64-8.71,14.57,14.57,0,0,0-2.93-3.23,12.69,12.69,0,0,0-4.17-2.26,15.4,15.4,0,0,0-4.58-.67,20.79,20.79,0,0,0-6,1c-.76.23-1.41.48-1.93.69l-.7.3-.31.15-.38.19h0a8.25,8.25,0,0,0-2.38,1.91,8.77,8.77,0,0,0-1.37,2.15,10.37,10.37,0,0,0-.73,2.24,11.5,11.5,0,0,0-.23,2.3,10.7,10.7,0,0,0,.26,2.35c.06.27.14.55.23.84h0c-2.48,0-5.3-.06-7.84-.14h0V202H348.5a49.22,49.22,0,0,0,0,47.52h2.44V238.32h0c2.53-.08,5.33-.14,7.82-.14h0c-.05.18-.1.35-.15.51a10.57,10.57,0,0,0-.34,2.68,11.23,11.23,0,0,0,.53,3.43,9.59,9.59,0,0,0,.84,1.9,8.59,8.59,0,0,0,1,1.37A8.23,8.23,0,0,0,363,250h0l.38.19c.38.19.78.36,1.32.57a24.14,24.14,0,0,0,3.11,1,20,20,0,0,0,4.54.56,15.39,15.39,0,0,0,4.57-.68,12.67,12.67,0,0,0,4.17-2.26,14.88,14.88,0,0,0,4-5.13,15.72,15.72,0,0,0,.9-11.26,11.62,11.62,0,0,0,.86-2,11.89,11.89,0,0,0,.59-3.72v-3A11.93,11.93,0,0,0,387,220.91Z"/><path class="cls-3" d="M331.3,165.69a12,12,0,0,0-2.6-.29h-3a11.76,11.76,0,0,0-5.7,1.46,15.92,15.92,0,0,0-4.45-.64h0a15.61,15.61,0,0,0-8.71,2.64,14.59,14.59,0,0,0-3.22,2.93,12.65,12.65,0,0,0-2.26,4.17,15.33,15.33,0,0,0-.67,4.57c0,.23,0,.46,0,.68A60.9,60.9,0,0,1,331.3,165.69Z"/><path class="cls-3" d="M340.07,258.28a60.6,60.6,0,0,1-4.59-8.79h0a60.79,60.79,0,0,1-4.34-16.25H319.67v-15h11.45a61,61,0,0,1,22.4-40.12c0-.16,0-.31-.08-.47a49.4,49.4,0,0,0-45.88,13.21q-1,1-1.93,2a9.56,9.56,0,0,0,1.35.76,10.58,10.58,0,0,0,2.24.73,11.42,11.42,0,0,0,2.3.24,10.56,10.56,0,0,0,2.35-.26c.27-.06.55-.13.84-.23,0,2.49-.06,5.3-.14,7.84H303.42v11.18h0c-2.53.08-5.33.14-7.81.14h0c.05-.17.1-.35.15-.51a10.74,10.74,0,0,0,.34-2.68c0-.36,0-.7,0-1a49.59,49.59,0,0,0,0,33.33c0-.33,0-.67,0-1a10.69,10.69,0,0,0-.26-2.35c-.06-.27-.14-.56-.23-.84,2.49,0,5.3.06,7.85.14h0V249.5H314.6c.08,2.54.14,5.35.14,7.85l-.51-.15a10.66,10.66,0,0,0-2.68-.34,11.27,11.27,0,0,0-3.43.53,9.89,9.89,0,0,0-1.9.84l-.56.35c.62.7,1.27,1.38,1.93,2a49.15,49.15,0,0,0,34.88,14.45h0a49.31,49.31,0,0,0,11-1.24c0-.16.06-.32.08-.47A61.41,61.41,0,0,1,340.07,258.28Z"/><path class="cls-3" d="M300.65,270.95a15.24,15.24,0,0,0,.68,4.58h0a12.57,12.57,0,0,0,2.26,4.17,14.89,14.89,0,0,0,5.13,4,15.69,15.69,0,0,0,6.8,1.55h0a16,16,0,0,0,4.45-.64,11.82,11.82,0,0,0,5.69,1.45h3a11.85,11.85,0,0,0,2.61-.29,61,61,0,0,1-30.64-15.52C300.66,270.49,300.65,270.71,300.65,270.95Z"/><path class="cls-4" d="M104.89,98.58H88.42q0,14.69-8.47,23T56,129.94a29.22,29.22,0,0,1-24.76-12.51Q22,104.91,22,86.19V61.65q0-18.53,9.23-31A29.22,29.22,0,0,1,56,18.09q15.44,0,23.91,8.38t8.47,22.78h17.79l.19-.56Q106.78,28.26,93,15.88T56,3.5Q32.78,3.5,18.14,20T3.5,61.87V86.25q0,25.33,14.64,41.8T56,144.53q22.46,0,36.3-12.57l.51-.47a41.36,41.36,0,0,0,12-19.51,45.16,45.16,0,0,0,1.52-12.84l-.19-.57h-1.33Z"/><path class="cls-4" d="M135.59,131.44a25.25,25.25,0,0,1-8.8,9,23.52,23.52,0,0,1-12.28,3.17q-11.87,0-18.56-7.57t-6.69-23.54V68.4h16.51v44.28q0,9.69,3.14,13.58t9.48,3.89A21.34,21.34,0,0,0,128.46,128a15.62,15.62,0,0,0,6.38-6.24V68.4h16.58v73.82H136.95Z"/><path class="cls-4" d="M181.72,142.22q-.87-2.75-1.44-5.36a38.41,38.41,0,0,1-.77-5.23,28.76,28.76,0,0,1-8.81,8.54,22.42,22.42,0,0,1-12.23,3.45q-11.32,0-17.39-5.83t-6.07-16q0-10.52,8.31-16.38t23.39-5.86h12.67V93.17q0-5.69-3.35-8.91T166.44,81q-5.56,0-8.85,2.68a8.5,8.5,0,0,0-3.28,6.9H138.63l-.07-.4q-.47-8.58,7.67-15.21t21.21-6.63q12.66,0,20.44,6.43t7.77,18.49v32.23a59.29,59.29,0,0,0,.6,8.61,45.92,45.92,0,0,0,1.94,8.07H181.72Zm-20-11.66a20.47,20.47,0,0,0,11.09-3.08q4.92-3.08,6.53-7V109.72H166.44q-7.1,0-11.12,3.52a10.69,10.69,0,0,0-4,8.27,8.45,8.45,0,0,0,2.71,6.6Q156.72,130.56,161.75,130.56Z"/><path class="cls-4" d="M208.92,142.16H192.63V37.63h16.28Z"/><path class="cls-4" d="M238.83,143.79q-15.41,0-24.56-10.09t-9.15-25.9v-2.68q0-15.81,9.08-26.23a28.73,28.73,0,0,1,22.75-10.35q14.68,0,22.48,8.88t7.81,23.82v9.58H222l-.14.33q.4,8.62,5.06,14.09t12.9,5.48a34.89,34.89,0,0,0,11.26-1.61,36.88,36.88,0,0,0,9-4.62l5.23,10.68a33.73,33.73,0,0,1-10.86,6.13A45.33,45.33,0,0,1,238.83,143.79ZM236.95,81.6A12.22,12.22,0,0,0,227,86.39a23.6,23.6,0,0,0-4.82,12.16l.14.33h28.75V97.21q0-6.9-3.52-11.26T236.95,81.6Z"/><path class="cls-4" d="M251.53,106.88q0-17.35,7.44-28t20.91-10.62a22.87,22.87,0,0,1,10.56,2.38,23.87,23.87,0,0,1,8.07,6.8V37.59h16.28V142.13H301.12l-1.61-9a23.93,23.93,0,0,1-8.38,7.74,23.57,23.57,0,0,1-11.39,2.65q-13.34,0-20.77-9.72t-7.44-25.53v-1.41Zm16.28,1.41q0,10.05,3.85,16t12.23,6a16.34,16.34,0,0,0,8.74-2.21,16.81,16.81,0,0,0,5.86-6.3V90.12a17.13,17.13,0,0,0-5.9-6.27A15.94,15.94,0,0,0,284,81.61q-8.31,0-12.26,7t-4,18.26Z"/><path class="cls-4" d="M334.92,84.59l-7-.27a14.6,14.6,0,0,0-7.94,2,13.24,13.24,0,0,0-4.92,5.7v50.39H298.8V69.91h14.88l1.07,10.52a23.27,23.27,0,0,1,7.07-8.71,16.46,16.46,0,0,1,10-3.15,15.22,15.22,0,0,1,2.75.23,20.5,20.5,0,0,1,2.34.57Z"/><path class="cls-4" d="M321,105.28q0-16.15,8.84-26.54t24.32-10.39q15.61,0,24.46,10.39t8.91,26.54v1.41q0,16.35-8.91,26.67t-24.32,10.25q-15.54,0-24.46-10.32T321,106.69Zm16.28,1.37q0,10.57,4.15,17.27t12.86,6.62q8.51,0,12.73-6.62t4.29-17.27v-1.4q0-10.37-4.29-17.06t-12.87-6.76q-8.51,0-12.73,6.76t-4.15,17.06Z"/><path class="cls-1" d="M104.89,98.58H88.42q0,14.69-8.47,23T56,129.94a29.22,29.22,0,0,1-24.76-12.51Q22,104.91,22,86.19V61.65q0-18.53,9.23-31A29.22,29.22,0,0,1,56,18.09q15.44,0,23.91,8.38t8.47,22.78h17.79l.19-.56Q106.78,28.26,93,15.88T56,3.5Q32.78,3.5,18.14,20T3.5,61.87V86.25q0,25.33,14.64,41.8T56,144.53q22.46,0,36.3-12.57l.51-.47a41.36,41.36,0,0,0,12-19.51,45.16,45.16,0,0,0,1.52-12.84l-.19-.57h-1.33Z"/><path class="cls-3" d="M135.59,131.44a25.25,25.25,0,0,1-8.8,9,23.52,23.52,0,0,1-12.28,3.17q-11.87,0-18.56-7.57t-6.69-23.54V68.4h16.51v44.28q0,9.69,3.14,13.58t9.48,3.89A21.34,21.34,0,0,0,128.46,128a15.62,15.62,0,0,0,6.38-6.24V68.4h16.58v73.82H136.95Z"/><path class="cls-1" d="M181.72,142.22q-.87-2.75-1.44-5.36a38.41,38.41,0,0,1-.77-5.23,28.76,28.76,0,0,1-8.81,8.54,22.42,22.42,0,0,1-12.23,3.45q-11.32,0-17.39-5.83t-6.07-16q0-10.52,8.31-16.38t23.39-5.86h12.67V93.17q0-5.69-3.35-8.91T166.44,81q-5.56,0-8.85,2.68a8.5,8.5,0,0,0-3.28,6.9H138.63l-.07-.4q-.47-8.58,7.67-15.21t21.21-6.63q12.66,0,20.44,6.43t7.77,18.49v32.23a59.29,59.29,0,0,0,.6,8.61,45.92,45.92,0,0,0,1.94,8.07H181.72Zm-20-11.66a20.47,20.47,0,0,0,11.09-3.08q4.92-3.08,6.53-7V109.72H166.44q-7.1,0-11.12,3.52a10.69,10.69,0,0,0-4,8.27,8.45,8.45,0,0,0,2.71,6.6Q156.72,130.56,161.75,130.56Z"/><path class="cls-3" d="M208.92,142.16H192.63V37.63h16.28Z"/><path class="cls-1" d="M238.83,143.79q-15.41,0-24.56-10.09t-9.15-25.9v-2.68q0-15.81,9.08-26.23a28.73,28.73,0,0,1,22.75-10.35q14.68,0,22.48,8.88t7.81,23.82v9.58H222l-.14.33q.4,8.62,5.06,14.09t12.9,5.48a34.89,34.89,0,0,0,11.26-1.61,36.88,36.88,0,0,0,9-4.62l5.23,10.68a33.73,33.73,0,0,1-10.86,6.13A45.33,45.33,0,0,1,238.83,143.79ZM236.95,81.6A12.22,12.22,0,0,0,227,86.39a23.6,23.6,0,0,0-4.82,12.16l.14.33h28.75V97.21q0-6.9-3.52-11.26T236.95,81.6Z"/><path class="cls-3" d="M251.53,106.88q0-17.35,7.44-28t20.91-10.62a22.87,22.87,0,0,1,10.56,2.38,23.87,23.87,0,0,1,8.07,6.8V37.59h16.28V142.13H301.12l-1.61-9a23.93,23.93,0,0,1-8.38,7.74,23.57,23.57,0,0,1-11.39,2.65q-13.34,0-20.77-9.72t-7.44-25.53v-1.41Zm16.28,1.41q0,10.05,3.85,16t12.23,6a16.34,16.34,0,0,0,8.74-2.21,16.81,16.81,0,0,0,5.86-6.3V90.12a17.13,17.13,0,0,0-5.9-6.27A15.94,15.94,0,0,0,284,81.61q-8.31,0-12.26,7t-4,18.26Z"/><path class="cls-1" d="M334.92,84.59l-7-.27a14.6,14.6,0,0,0-7.94,2,13.24,13.24,0,0,0-4.92,5.7v50.39H298.8V69.91h14.88l1.07,10.52a23.27,23.27,0,0,1,7.07-8.71,16.46,16.46,0,0,1,10-3.15,15.22,15.22,0,0,1,2.75.23,20.5,20.5,0,0,1,2.34.57Z"/><path class="cls-3" d="M321,105.28q0-16.15,8.84-26.54t24.32-10.39q15.61,0,24.46,10.39t8.91,26.54v1.41q0,16.35-8.91,26.67t-24.32,10.25q-15.54,0-24.46-10.32T321,106.69Zm16.28,1.37q0,10.57,4.15,17.27t12.86,6.62q8.51,0,12.73-6.62t4.29-17.27v-1.4q0-10.37-4.29-17.06t-12.87-6.76q-8.51,0-12.73,6.76t-4.15,17.06Z"/></g></g></svg>