<svg xmlns="http://www.w3.org/2000/svg" viewBox="0 0 384.02 141.03"><defs><style>.cls-1,.cls-4{opacity:0.9;}.cls-2,.cls-3,.cls-4{fill:#fff;}.cls-3,.cls-5{opacity:0.5;}.cls-3,.cls-4{isolation:isolate;}</style></defs><title>logoMob</title><g id="Capa_2" data-name="Capa 2"><g id="Layer_1" data-name="Layer 1"><g class="cls-1"><path class="cls-2" d="M101.39,95.08H84.92q0,14.69-8.47,23t-23.91,8.33a29.22,29.22,0,0,1-24.76-12.51q-9.23-12.51-9.23-31.23V58.15q0-18.53,9.23-31A29.22,29.22,0,0,1,52.53,14.59Q68,14.59,76.45,23t8.47,22.78h17.79l.19-.56q.38-20.43-13.37-32.81T52.53,0Q29.28,0,14.64,16.52T0,58.37V82.75q0,25.33,14.64,41.8T52.53,141q22.46,0,36.3-12.57l.51-.47a41.36,41.36,0,0,0,12-19.51,45.16,45.16,0,0,0,1.52-12.84l-.19-.57h-1.33Z"/></g><path class="cls-3" d="M132.09,127.94a25.25,25.25,0,0,1-8.8,9A23.52,23.52,0,0,1,111,140.15q-11.87,0-18.56-7.57T85.76,109V64.9h16.51v44.28q0,9.69,3.14,13.58t9.48,3.89A21.34,21.34,0,0,0,125,124.49a15.62,15.62,0,0,0,6.38-6.24V64.9h16.58v73.82H133.45Z"/><g class="cls-1"><path class="cls-2" d="M178.22,138.72q-.87-2.75-1.44-5.36a38.41,38.41,0,0,1-.77-5.23,28.76,28.76,0,0,1-8.81,8.54A22.42,22.42,0,0,1,155,140.12q-11.32,0-17.39-5.83t-6.07-16q0-10.52,8.31-16.38T163.21,96h12.67V89.67q0-5.69-3.35-8.91t-9.58-3.22q-5.56,0-8.85,2.68a8.5,8.5,0,0,0-3.28,6.9H135.13l-.07-.4q-.47-8.58,7.67-15.21t21.21-6.63q12.66,0,20.44,6.43t7.77,18.49V122a59.29,59.29,0,0,0,.6,8.61,45.48,45.48,0,0,0,1.94,8.07H178.22Zm-20-11.66A20.47,20.47,0,0,0,169.34,124q4.92-3.08,6.53-7V106.22H162.94q-7.1,0-11.12,3.52a10.69,10.69,0,0,0-4,8.28,8.45,8.45,0,0,0,2.71,6.6Q153.23,127.06,158.25,127.06Z"/></g><path class="cls-3" d="M205.42,138.66H189.14V34.13h16.28Z"/><g class="cls-1"><path class="cls-2" d="M235.33,140.29q-15.42,0-24.56-10.09t-9.15-25.9v-2.68q0-15.81,9.08-26.23A28.73,28.73,0,0,1,233.45,65q14.67,0,22.48,8.88t7.81,23.82v9.58H218.51l-.14.33q.4,8.62,5.06,14.09t12.9,5.48a34.88,34.88,0,0,0,11.26-1.61,36.89,36.89,0,0,0,9-4.62l5.23,10.68A33.71,33.71,0,0,1,251,137.79,45.32,45.32,0,0,1,235.33,140.29ZM233.45,78.1a12.22,12.22,0,0,0-9.92,4.79,23.58,23.58,0,0,0-4.82,12.16l.13.33h28.75V93.71q0-6.9-3.52-11.26T233.45,78.1Z"/></g><path class="cls-3" d="M248,103.38q0-17.35,7.44-28t20.91-10.62a22.87,22.87,0,0,1,10.56,2.38A23.88,23.88,0,0,1,295,74V34.09h16.28V138.63H297.62l-1.61-9a24,24,0,0,1-8.38,7.74A23.57,23.57,0,0,1,276.24,140q-13.34,0-20.77-9.72T248,104.78v-1.41Zm16.28,1.41q0,10.05,3.85,16t12.23,6a16.35,16.35,0,0,0,8.74-2.21,16.84,16.84,0,0,0,5.86-6.3V86.62a17.15,17.15,0,0,0-5.9-6.27,15.94,15.94,0,0,0-8.58-2.24q-8.31,0-12.26,7t-4,18.26Z"/><path class="cls-4" d="M331.42,81.09l-7-.27a14.6,14.6,0,0,0-7.94,2,13.24,13.24,0,0,0-4.92,5.7v50.39H295.31V66.41h14.87l1.07,10.52a23.28,23.28,0,0,1,7.07-8.71,16.47,16.47,0,0,1,10-3.15,15.23,15.23,0,0,1,2.75.23,20.5,20.5,0,0,1,2.34.57Z"/><g class="cls-5"><path class="cls-2" d="M317.48,101.78q0-16.15,8.85-26.54t24.32-10.39q15.61,0,24.46,10.39T384,101.78v1.41q0,16.35-8.91,26.67t-24.32,10.25q-15.55,0-24.46-10.32t-8.85-26.6v-1.41Zm16.28,1.37q0,10.57,4.15,17.27T350.78,127q8.51,0,12.73-6.62t4.29-17.27v-1.41q0-10.37-4.29-17.06t-12.86-6.76q-8.51,0-12.73,6.76t-4.15,17.06Z"/></g></g></g></svg>